<svg xmlns="http://www.w3.org/2000/svg" width="727" height="692" viewBox="0 0 727 692"><g fill="none" fill-rule="evenodd"><g fill="#000" fill-rule="nonzero"><g transform="translate(497 57)"><circle cx="20" cy="19" r="19"/><path d="M19.500898,38 C8.74788175,38 0,29.4764229 0,19 C0,8.52270216 8.74788175,0 19.500898,0 C30.2530162,0 39,8.52357709 39,19 C39,29.4764229 30.2530162,38 19.500898,38 Z M19.500898,0.874930927 C9.24355314,0.874930927 0.897955425,9.00566403 0.897955425,19 C0.897955425,28.994336 9.24355314,37.1250691 19.500898,37.1250691 C29.7573448,37.1250691 38.1020446,28.994336 38.1020446,19 C38.1020446,9.00566403 29.7573448,0.874930927 19.500898,0.874930927 Z"/></g><g transform="translate(441 57)"><circle cx="20" cy="19" r="19"/><path d="M20.0008749,38 C9.52357709,38 1,29.4764229 1,19 C1,8.52270216 9.52357709,0 20.0008749,0 C30.4772978,0 39,8.52357709 39,19 C39,29.4764229 30.4772978,38 20.0008749,38 Z M20.0008749,0.874930927 C10.006539,0.874930927 1.87493093,9.00566403 1.87493093,19 C1.87493093,28.994336 10.006539,37.1250691 20.0008749,37.1250691 C29.994336,37.1250691 38.1250691,28.994336 38.1250691,19 C38.1250691,9.00566403 29.994336,0.874930927 20.0008749,0.874930927 Z"/></g><g transform="translate(386 57)"><ellipse cx="19" cy="19.5" rx="19" ry="18.5"/><path d="M19,39 C8.5231846,39 0,30.2521183 0,19.5 C0,8.74698379 8.5231846,0 19,0 C29.4768154,0 38,8.74788175 38,19.5 C38,30.2521183 29.4768154,39 19,39 Z M19,1 C9.0751074,1 1,9.29892354 1,19.5 C1,29.7010765 9.0751074,38 19,38 C28.9248926,38 37,29.7010765 37,19.5 C37,9.29892354 28.9248926,1 19,1 Z"/></g><path d="M591.518,515.858 L591.518,45.0984048 C591.518,13.0404048 589.93931,0.02 557.88031,0.02 L41.4353617,1.42108547e-14 C9.3773617,1.42108547e-14 0.5,13.0404048 0.5,45.0984048 L-1.42108547e-14,536.117452 C-1.42108547e-14,568.175452 9.3773617,573.998 41.4353617,573.998 L533.377,573.998 C549.142736,573.998 571.193952,571.912243 581.677634,561.688103 C592.512105,551.12186 591.518,532.150756 591.518,515.858 Z M23.678,42.3145455 C23.678,31.017754 31.0927402,21.86 40.2393906,21.86 L554.115527,21.86 C563.261095,21.86 570.678,31.017754 570.678,42.3145455 L570.678,129.86 L23.678,129.86 L23.678,42.3145455 Z M24,536.217888 L24,153 L571,153 L571,536.217888 C571,545.485343 563.583095,553 554.437527,553 L40.5613906,553 C31.4147402,553 24,545.485343 24,536.217888 Z"/></g><g fill="#000" fill-rule="nonzero" transform="translate(108 207)"><path d="M233 43C221.93617 43 213 51.712766 213 62.5 213 73.287234 221.93617 82 233 82 244.06383 82 253 73.287234 253 62.5 253 51.712766 244.06383 43 233 43ZM233 70C229.129412 70 226 66.8705882 226 63 226 59.1294118 229.129412 56 233 56 236.870588 56 240 59.1294118 240 63 240 66.8705882 236.870588 70 233 70ZM285 87C272.829787 87 263 96.606383 263 108.5 263 120.393617 272.829787 130 285 130 297.170213 130 307 120.393617 307 108.5 307 96.606383 297.170213 87 285 87ZM285 117C280.576471 117 277 113.423529 277 109 277 104.576471 280.576471 101 285 101 289.423529 101 293 104.576471 293 109 293 113.423529 289.423529 117 285 117ZM70.5 153C58.125 153 48 163.125 48 175.5 48 187.875 58.125 198 70.5 198 82.96875 198 93 187.875 93 175.5 93 163.125 82.875 153 70.5 153ZM70.5 184C65.7777778 184 62 180.222222 62 175.5 62 170.777778 65.7777778 167 70.5 167 75.2222222 167 79 170.777778 79 175.5 79 180.222222 75.2222222 184 70.5 184ZM127 159C139.191667 159 149 149.1 149 137 149 124.9 139.1 115 127 115 114.9 115 105 124.9 105 137 105 149.1 114.9 159 127 159ZM127.5 129C132.222222 129 136 132.777778 136 137.5 136 142.222222 132.222222 146 127.5 146 122.777778 146 119 142.222222 119 137.5 119 132.777778 122.777778 129 127.5 129ZM177.5 183C165.063636 183 155 193.063636 155 205.5 155 217.936364 165.063636 228 177.5 228 189.936364 228 200 217.936364 200 205.5 200 193.063636 189.936364 183 177.5 183ZM178 216C172.48 216 168 211.52 168 206 168 200.48 172.48 196 178 196 183.52 196 188 200.48 188 206 188 211.52 183.52 216 178 216Z"/><path d="M349.516411,67.0953501 C348.81248,65.6893939 347.639261,64.5958725 346.153183,64.1272205 C344.667106,63.6585684 343.024599,63.7366771 341.694951,64.4396552 C340.912805,64.8301985 338.409937,64.8301985 337.471362,64.8301985 C326.364888,64.8301985 317.057351,55.8477011 317.057351,45.146813 L317.057351,42.1786834 C317.057351,40.1478579 315.962346,38.2732497 314.241625,37.1797283 C312.520904,36.0862069 310.330895,36.0080982 308.531959,36.9454023 C305.716233,38.3513584 301.805503,39.2886625 298.52049,39.2886625 C280.609346,39.2886625 265.435713,24.4480146 265.435713,6.87356322 C265.435713,4.06165099 263.480347,1.7183908 260.742836,1.09352142 C255.267814,0 250.966011,0 245.960276,0 C203.802605,0 164.147801,25.8539707 144.281292,65.92372 C138.336982,65.1426332 132.236243,64.6739812 126.135504,64.6739812 C92.5814393,64.6739812 61.0609542,76.8589342 37.3619294,98.9636886 C13.58469,121.22466 0.444636678,150.827847 0.444636678,182.305643 C0.444636678,246.667189 56.8373656,299 126.135504,299 C170.40497,299 209.434057,277.598224 231.881648,245.339342 C237.35667,246.198537 242.753478,246.58908 248.150285,246.58908 C299.38085,246.58908 345.136393,209.565569 358.902163,154.264629 C366.019692,125.36442 362.656464,93.4960815 349.516411,67.0953501 Z M125.811764,281.015938 C67.1161562,281.015938 19.3117637,236.99316 19.3117637,182.895518 C19.3117637,128.286832 67.1161562,83.8260162 125.811764,83.8260162 C184.507371,83.8260162 232.311764,128.286832 232.311764,182.895518 C232.311764,236.99316 184.507371,281.015938 125.811764,281.015938 Z M339.995322,150.511494 C327.839694,199.649425 285.474814,231.402299 239.873228,226.804598 C247.641321,212.364943 252.028856,196.057471 252.028856,178.887931 C252.028856,149.864943 239.945155,122.637931 218.07941,102.235632 C202.974784,88.1551724 184.417671,78.4568966 164.206243,73.7873563 C181.109039,42.1063218 212.900681,21.8477011 246.634346,21.8477011 C249.439491,21.8477011 251.741148,21.8477011 254.042806,22.0632184 C256.488317,41.9626437 274.254234,57.9109195 294.96915,57.9109195 C297.126954,57.9109195 299.356685,57.6235632 301.586415,57.1925287 C303.888073,70.9137931 316.115627,81.4022989 330.788693,81.4022989 C331.723741,81.4022989 332.802643,81.4022989 334.025398,81.3304598 C343.591662,102.522989 345.749466,127.522989 339.995322,150.511494 Z"/><path d="M191.048543 134.656442 186.688275 136.809816 186.688275 132.981595C186.688275 129.711656 183.891122 127 180.518084 127 177.145047 127 174.347893 129.711656 174.347893 132.981595L174.347893 142.791411 164.393319 147.656442C161.349358 149.171779 160.11532 152.760736 161.678435 155.711656 162.747935 157.785276 164.969203 158.981595 167.190472 158.981595 168.095433 158.981595 169.082664 158.742331 169.987625 158.343558L174.347893 156.190184 174.347893 160.018405C174.347893 163.288344 177.145047 166 180.518084 166 183.891122 166 186.688275 163.288344 186.688275 160.018405L186.688275 150.208589 196.642849 145.343558C199.68681 143.828221 200.838579 140.239264 199.357733 137.288344 197.794618 134.337423 194.092504 133.141104 191.048543 134.656442ZM299.355065 152.991837 299.355065 151.734694C299.355065 148.053061 296.376645 145 292.785022 145 289.193398 145 286.214978 148.053061 286.214978 151.734694L286.214978 157.032653 276.666516 159.995918C273.162493 161.073469 271.23528 164.844898 272.286487 168.436735 273.162493 171.310204 275.79051 173.195918 278.593729 173.195918 279.206933 173.195918 279.907737 173.106122 280.520941 172.926531L286.214978 171.130612 286.214978 182.265306C286.214978 185.946939 289.193398 189 292.785022 189 296.376645 189 299.355065 185.946939 299.355065 182.265306L299.355065 167.089796 302.333484 166.191837C305.837507 164.934694 307.76472 161.163265 306.713513 157.661224 305.749906 154.428571 302.596286 152.453061 299.355065 152.991837ZM133.209877 226.737852 122.526749 226.737852 116.73251 214.804945C115.102881 211.485264 111.028807 210.049727 107.679012 211.664707 104.329218 213.279686 102.880658 217.317136 104.510288 220.636817L107.497942 226.827573 102.790123 226.827573C99.0781893 226.827573 96 229.878091 96 233.556656 96 237.235221 99.0781893 240.285739 102.790123 240.285739L114.016461 240.285739 119.26749 251.141993C120.444444 253.564462 122.888889 255 125.423868 255 126.419753 255 127.415638 254.820558 128.320988 254.371952 131.670782 252.756972 133.119342 248.719523 131.489712 245.399842L129.045267 240.37546 133.209877 240.37546C136.921811 240.37546 140 237.324942 140 233.646377 140 229.967812 136.921811 226.737852 133.209877 226.737852Z"/></g><g fill="#FFF" stroke="#000" stroke-width="25" transform="translate(425 371)"><path d="M171.557246,2.344496 C165.923283,0 158.78274,0 144.500122,0 C130.217505,0 123.076962,0 117.442999,2.344496 C109.932632,5.470542 103.965321,11.466532 100.854227,19.013302 C99.4340877,22.458436 98.8782013,26.4649 98.6607205,32.309046 C98.3411663,40.897472 93.9578326,48.847106 86.5503052,53.144322 C79.1430843,57.441384 70.0997764,57.280916 62.5377594,53.264904 C57.3920935,50.53202 53.6610489,49.012348 49.981654,48.525708 C41.921531,47.459412 33.7700629,49.654066 27.3204318,54.62688 C22.4831319,58.356452 18.9125541,64.57066 11.7713985,76.998922 C4.63024285,89.427338 1.05966504,95.641392 0.263768121,101.715614 C-0.797274509,109.81432 1.38688244,118.004964 6.33591141,124.4859 C8.59470764,127.44424 11.769406,129.9298 16.6966716,133.0406 C23.9400539,137.6144 28.6006412,145.40526 28.6001814,154 C28.5997216,162.59474 23.9392876,170.38406 16.6965184,174.95632 C11.7686397,178.06866 8.59348153,180.55576 6.33437878,183.5141 C1.3853498,189.99442 -0.798807144,198.18414 0.262388751,206.283 C1.05813241,212.35676 4.62871022,218.5722 11.7698658,231 C18.9111747,243.4278 22.4817525,249.64324 27.3188992,253.37158 C33.7685303,258.34424 41.9199983,260.53874 49.9801214,259.47306 C53.6592097,258.98642 57.3901011,257.46644 62.5354605,254.73448 C70.0979372,250.71816 79.1418581,250.558 86.5496921,254.8546 C93.9575261,259.15274 98.3411663,267.10222 98.6607205,275.69234 C98.8783546,281.5351 99.4340877,285.54218 100.854227,288.98716 C103.965321,296.53316 109.932632,302.52992 117.442999,305.65612 C123.076962,308 130.217505,308 144.500122,308 C158.78274,308 165.923283,308 171.557246,305.65612 C179.067153,302.52992 185.035231,296.53316 188.144945,288.98716 C189.565697,285.54218 190.122044,281.5351 190.339678,275.6908 C190.658466,267.10222 195.041799,259.15274 202.44902,254.8546 C209.856241,250.55646 218.900315,250.71816 226.463865,254.73448 C231.608918,257.46644 235.339349,258.98488 239.017671,259.47152 C247.077794,260.53874 255.229875,258.34424 261.6792,253.37158 C266.516193,249.6417 270.087231,243.4278 277.227774,230.99846 C284.369849,218.57066 287.940886,212.35676 288.736323,206.283 C289.796906,198.18414 287.612903,189.99288 282.664027,183.51256 C280.404924,180.55422 277.229306,178.06712 272.301887,174.95632 C265.060191,170.38406 260.39945,162.5932 260.39945,153.99846 C260.39945,145.40372 265.060191,137.61594 272.301887,133.04368 C277.230839,129.93134 280.406457,127.44578 282.66556,124.4859 C287.614435,118.006042 289.798439,109.815398 288.737856,101.716538 C287.942419,95.64247 284.371381,89.428262 277.229306,77 C270.088764,64.571738 266.517726,58.35753 261.680733,54.627958 C255.231408,49.655144 247.079327,47.46049 239.019204,48.526786 C235.340882,49.013426 231.61045,50.532944 226.463865,53.26552 C218.901848,57.281686 209.857774,57.442308 202.450553,53.144784 C195.041799,48.847414 190.658466,40.897164 190.339678,32.308276 C190.122044,26.464592 189.565697,22.458282 188.144945,19.013302 C185.035231,11.466532 179.067153,5.470542 171.557246,2.344496 Z"/><circle cx="145.5" cy="154.5" r="74.5"/></g></g></svg>